<svg width="24" height="24" viewBox="0 0 24 24" fill="none" xmlns="http://www.w3.org/2000/svg">
<path d="M1.2 24.0001H9.6C9.91826 24.0001 10.2235 23.8734 10.4485 23.648C10.6736 23.4225 10.8 23.1168 10.8 22.7979V14.3826C10.8 14.0638 10.6736 13.758 10.4485 13.5325C10.2235 13.3071 9.91826 13.1804 9.6 13.1804H1.2C0.88174 13.1804 0.576515 13.3071 0.351472 13.5325C0.126428 13.758 0 14.0638 0 14.3826V22.7979C0 23.1168 0.126428 23.4225 0.351472 23.648C0.576515 23.8734 0.88174 24.0001 1.2 24.0001ZM18.6 13.1804C15.6228 13.1804 13.2 15.6076 13.2 18.5903C13.2 21.5729 15.6228 24.0001 18.6 24.0001C21.5772 24.0001 24 21.5729 24 18.5903C24 15.6076 21.5772 13.1804 18.6 13.1804Z" fill="black"/>
<path d="M10.9568 0.562173C11.3828 -0.18679 12.614 -0.187992 13.04 0.562173L17.8412 8.97748C17.9451 9.16034 17.9992 9.36728 17.9984 9.57766C17.9975 9.78805 17.9415 9.99452 17.8361 10.1765C17.7308 10.3585 17.5796 10.5096 17.3977 10.6148C17.2158 10.7199 17.0096 10.7755 16.7996 10.7759H7.19961C6.98947 10.7759 6.78303 10.7205 6.60095 10.6154C6.41886 10.5103 6.26752 10.3592 6.16206 10.1771C6.0566 9.99499 6.00072 9.78835 6.00001 9.57782C5.9993 9.3673 6.05378 9.16028 6.15801 8.97748L10.9568 0.562173Z" fill="black"/>
</svg>
